<?xml version="1.0" standalone="no"?><!DOCTYPE svg PUBLIC "-//W3C//DTD SVG 1.1//EN" "http://www.w3.org/Graphics/SVG/1.1/DTD/svg11.dtd"><svg t="1585581057815" class="icon" viewBox="0 0 1024 1024" version="1.1" xmlns="http://www.w3.org/2000/svg" p-id="1881" width="16" height="16" xmlns:xlink="http://www.w3.org/1999/xlink"><defs><style type="text/css"></style></defs><path d="M768 930.133333c-4.266667 0-8.533333 0-12.8-2.133333l-243.2-128-243.2 128c-8.533333 4.266667-19.2 4.266667-27.733333-2.133333-8.533333-6.4-12.8-17.066667-10.666667-25.6L277.333333 629.333333l-196.266666-192c-6.4-6.4-10.666667-17.066667-6.4-27.733333 2.133333-10.666667 10.666667-17.066667 21.333333-19.2l270.933333-38.4L488.533333 106.666667c4.266667-8.533333 12.8-14.933333 23.466667-14.933334 10.666667 0 19.2 6.4 23.466667 14.933334l121.6 245.333333 270.933333 38.4c10.666667 2.133333 19.2 8.533333 21.333333 19.2 2.133333 10.666667 0 21.333333-6.4 27.733333l-196.266666 192 46.933333 270.933334c2.133333 10.666667-2.133333 19.2-10.666667 25.6-4.266667 4.266667-10.666667 4.266667-14.933333 4.266666z m-256-185.6c4.266667 0 8.533333 0 12.8 2.133334l206.933333 108.8-40.533333-230.4c-2.133333-8.533333 2.133333-17.066667 8.533333-23.466667l168.533334-164.266667L635.733333 405.333333c-8.533333-2.133333-17.066667-6.4-19.2-14.933333L512 179.2l-104.533333 209.066667c-4.266667 8.533333-10.666667 12.8-19.2 14.933333L155.733333 437.333333l168.533334 164.266667c6.4 6.4 8.533333 14.933333 8.533333 23.466667l-40.533333 230.4 206.933333-108.8c4.266667-2.133333 8.533333-2.133333 12.8-2.133334z" fill="#42bd56" p-id="1882"></path></svg>