<?xml version="1.0" standalone="no"?><!DOCTYPE svg PUBLIC "-//W3C//DTD SVG 1.1//EN" "http://www.w3.org/Graphics/SVG/1.1/DTD/svg11.dtd"><svg t="1585581083583" class="icon" viewBox="0 0 1024 1024" version="1.1" xmlns="http://www.w3.org/2000/svg" p-id="2171" xmlns:xlink="http://www.w3.org/1999/xlink" width="16" height="16"><defs><style type="text/css"></style></defs><path d="M815.784 1019.361c0.244 1.632-0.729 2.299-2.162 1.481L508.337 846.937c-1.434-0.817-3.799-0.853-5.256-0.078l-309.94 164.568c-1.457 0.774-2.413 0.078-2.123-1.546l63.752-357.768c0.29-1.624-0.405-3.931-1.542-5.126L7.853 389.293c-1.138-1.195-0.731-2.355 0.903-2.579l344.573-47.072c1.635-0.224 3.565-1.619 4.29-3.102L516.008 12.592c0.725-1.482 1.876-1.466 2.559 0.036l149.351 328.618c0.683 1.502 2.572 2.954 4.2 3.227l343.14 57.51c1.628 0.273 2 1.446 0.828 2.608L763.644 654.723c-1.172 1.161-1.931 3.446-1.687 5.078l53.827 359.56z" p-id="2172" fill="#ff4055"></path></svg>